<?xml version="1.0" encoding="iso-8859-1"?>
<!-- Uploaded to: SVG Repo, www.svgrepo.com, Generator: SVG Repo Mixer Tools -->
<svg height="800px" width="800px" version="1.1" id="Layer_1" xmlns="http://www.w3.org/2000/svg" xmlns:xlink="http://www.w3.org/1999/xlink" 
	 viewBox="0 0 502.596 502.596" xml:space="preserve">
<path style="fill:#F2F2F2;" d="M440.424,400.196l-6.269,17.763l-27.167,72.098c-3.135,7.314-9.404,12.539-17.763,12.539H113.371
	c-8.359,0-14.629-5.224-17.763-12.539l-27.167-72.098l-6.269-17.763c5.224,2.09,11.494,2.09,16.718,2.09
	c16.718,0,32.392-7.314,42.841-19.853c10.449,11.494,26.122,19.853,42.841,19.853s32.392-7.314,42.841-19.853
	c10.449,11.494,26.122,19.853,42.841,19.853s32.392-7.314,42.841-19.853c10.449,11.494,26.122,19.853,42.841,19.853
	c16.718,0,32.392-7.314,42.841-19.853c10.449,11.494,26.122,19.853,42.841,19.853C428.931,402.286,435.2,402.286,440.424,400.196z"
	/>
<path style="fill:#F8B64C;" d="M423.706,288.392c-16.718,0-32.392,7.314-42.841,19.853c-10.449-11.494-26.122-19.853-42.841-19.853
	c-16.718,0-32.392,7.314-42.841,19.853c-10.449-11.494-26.122-19.853-42.841-19.853c-16.718,0-32.392,7.314-42.841,19.853
	c-10.449-11.494-26.122-19.853-42.841-19.853s-32.392,7.314-42.841,19.853c-10.449-11.494-26.122-19.853-42.841-19.853
	c-31.347,0-57.469,26.122-57.469,57.469s24.033,56.424,55.38,56.424c16.718,0,32.392-7.314,42.841-19.853
	c10.449,11.494,26.122,19.853,42.841,19.853s32.392-7.314,42.841-19.853c10.449,11.494,26.122,19.853,42.841,19.853
	s32.392-7.314,42.841-19.853c10.449,11.494,26.122,19.853,42.841,19.853c16.718,0,32.392-7.314,42.841-19.853
	c10.449,11.494,26.122,19.853,42.841,19.853c31.347,0,57.469-26.122,57.469-57.469S455.053,288.392,423.706,288.392z"/>
<path style="fill:#FFD15C;" d="M251.298,86.727c-117.029,0-211.069,87.771-211.069,195.396s423.184,107.624,423.184,0
	C462.367,174.498,368.327,86.727,251.298,86.727z"/>
<circle style="fill:#FF7058;" cx="251.298" cy="70.008" r="42.841"/>
<path style="fill:#40596B;" d="M251.298,44.931C251.298,44.931,250.253,44.931,251.298,44.931c-4.18-1.045-5.225-3.135-5.225-6.269
	C248.163,25.078,259.657,0,286.824,0c3.135,0,5.224,2.09,5.224,5.224s-2.09,5.224-5.224,5.224
	c-25.078,0-30.302,29.257-30.302,30.302C255.478,42.841,253.388,44.931,251.298,44.931z"/>
<path style="fill:#E2E2E2;" d="M440.424,400.196l-6.269,17.763c-3.135,1.045-7.314,1.045-10.449,1.045
	c-15.673,0-30.302-5.224-42.841-13.584c-12.539,9.404-27.167,13.584-42.841,13.584c-15.673,0-30.302-5.224-42.841-13.584
	c-12.539,9.404-27.167,13.584-42.841,13.584s-30.302-5.224-42.841-13.584c-12.539,9.404-27.167,13.584-42.841,13.584
	s-30.302-5.224-42.841-13.584c-13.584,8.359-29.257,12.539-44.931,12.539c-3.135,0-7.314,0-10.449-1.045l-6.269-17.763
	c5.224,3.135,11.494,3.135,16.718,3.135c16.718,0,32.392-7.314,42.841-19.853c10.449,11.494,26.122,19.853,42.841,19.853
	s32.392-7.314,42.841-19.853c10.449,11.494,26.122,19.853,42.841,19.853s32.392-7.314,42.841-19.853
	c10.449,11.494,26.122,19.853,42.841,19.853c16.718,0,32.392-7.314,42.841-19.853c10.449,11.494,26.122,19.853,42.841,19.853
	C428.931,402.286,435.2,402.286,440.424,400.196z"/>
</svg>