<?xml version="1.0" encoding="iso-8859-1"?>
<!-- Uploaded to: SVG Repo, www.svgrepo.com, Generator: SVG Repo Mixer Tools -->
<svg fill="#000000" height="800px" width="800px" version="1.1" id="Layer_1" xmlns="http://www.w3.org/2000/svg" xmlns:xlink="http://www.w3.org/1999/xlink" 
	 viewBox="0 0 512 512" xml:space="preserve">
<g>
	<g>
		<path d="M474.408,372.668L455.31,361.6l15.078-4.019c4.557-1.203,7.262-5.88,6.05-10.436c-1.22-4.557-5.879-7.279-10.445-6.042
			l-31.548,8.414l-11.725-6.793l4.284-7.39c2.364-4.079,0.973-9.293-3.115-11.656c-4.062-2.389-9.301-0.981-11.657,3.106
			l-4.275,7.39l-26.479-15.343l38.409-10.223c4.548-1.212,7.253-5.888,6.05-10.445c-1.229-4.565-5.905-7.228-10.453-6.05
			l-54.895,14.618l-33.152-19.2l51.601-23.782c3.021-1.391,4.958-4.403,4.958-7.731c0.009-3.328-1.911-6.349-4.924-7.748
			l-52.685-24.55l33.417-20.053l55.117,13.781c0.691,0.171,1.391,0.256,2.074,0.256c3.823,0,7.296-2.586,8.26-6.468
			c1.152-4.565-1.63-9.199-6.204-10.342l-38.554-9.643l26.24-15.735l4.386,7.313c1.604,2.662,4.429,4.139,7.33,4.139
			c1.485,0,3.004-0.393,4.378-1.212c4.045-2.423,5.35-7.671,2.927-11.708l-4.386-7.313l11.605-6.963l31.693,7.919
			c0.691,0.171,1.391,0.256,2.074,0.256c3.823,0,7.296-2.586,8.269-6.468c1.143-4.565-1.638-9.199-6.212-10.342l-15.13-3.78
			l18.918-11.349c4.045-2.432,5.35-7.671,2.927-11.708c-2.423-4.036-7.654-5.359-11.708-2.927l-18.927,11.349l3.789-15.147
			c1.143-4.565-1.638-9.199-6.212-10.334c-4.582-1.169-9.199,1.63-10.342,6.204l-7.91,31.684l-11.614,6.972l-4.395-7.322
			c-2.423-4.036-7.663-5.35-11.708-2.927c-4.036,2.423-5.35,7.672-2.918,11.708l4.386,7.322l-26.24,15.735l9.634-38.545
			c1.152-4.565-1.63-9.199-6.212-10.342c-4.582-1.186-9.207,1.621-10.342,6.204l-13.773,55.108l-31.812,19.081l5.026-53.726
			c0.307-3.328-1.357-6.528-4.25-8.192c-2.884-1.664-6.494-1.493-9.216,0.461l-46.242,33.024v-39.62L304.705,99.9
			c3.328-3.328,3.328-8.73,0-12.066c-3.337-3.337-8.738-3.337-12.075,0l-28.1,28.1V85.333h8.533c4.719,0,8.533-3.814,8.533-8.533
			s-3.814-8.533-8.533-8.533h-8.533V54.733l23.108-23.1c3.328-3.328,3.328-8.73,0-12.066c-3.337-3.337-8.738-3.337-12.075,0
			L264.53,30.601V8.533c0-4.719-3.814-8.533-8.533-8.533c-4.71,0-8.533,3.814-8.533,8.533v22.067l-11.025-11.034
			c-3.337-3.337-8.738-3.337-12.075,0c-3.328,3.337-3.328,8.738,0,12.066l23.1,23.1v13.534h-8.533c-4.71,0-8.533,3.814-8.533,8.533
			s3.823,8.533,8.533,8.533h8.533v30.601l-28.092-28.1c-3.337-3.337-8.738-3.337-12.075,0c-3.328,3.337-3.328,8.738,0,12.066
			l40.166,40.166v39.62l-46.234-33.024c-2.714-1.954-6.306-2.108-9.199-0.469c-2.893,1.655-4.557,4.838-4.267,8.166l4.907,55.091
			l-32.708-18.944l-14.609-54.886c-1.22-4.565-5.931-7.228-10.445-6.059c-4.557,1.212-7.27,5.888-6.059,10.436l10.231,38.409
			l-26.479-15.334l4.284-7.398c2.364-4.07,0.973-9.293-3.115-11.657c-4.062-2.381-9.293-0.973-11.656,3.106l-4.275,7.39
			l-11.708-6.776l-8.405-31.582c-1.22-4.565-5.922-7.219-10.445-6.059c-4.557,1.22-7.262,5.897-6.059,10.445l4.019,15.095
			L46.145,124.57c-4.07-2.381-9.293-0.973-11.665,3.106c-2.364,4.079-0.973,9.301,3.115,11.656L56.692,150.4l-15.087,4.019
			c-4.548,1.203-7.253,5.879-6.042,10.436c1.024,3.823,4.471,6.34,8.235,6.34c0.734,0,1.468-0.094,2.21-0.299l31.548-8.414
			l11.725,6.793l-4.284,7.39c-2.364,4.079-0.973,9.293,3.115,11.656c1.34,0.785,2.816,1.152,4.267,1.152
			c2.935,0,5.803-1.519,7.39-4.258l4.275-7.381l26.479,15.334l-38.409,10.223c-4.548,1.22-7.253,5.897-6.05,10.453
			c1.033,3.814,4.48,6.332,8.243,6.332c0.734,0,1.468-0.094,2.21-0.282l54.895-14.626l33.143,19.2l-51.695,23.782
			c-3.012,1.382-4.941,4.378-4.966,7.689c-0.026,3.311,1.869,6.332,4.855,7.757l52.241,24.96l-32.794,19.678l-55.117-13.773
			c-4.582-1.178-9.207,1.621-10.334,6.204c-1.152,4.565,1.63,9.199,6.204,10.342l38.554,9.643l-26.24,15.735l-4.386-7.313
			c-2.423-4.028-7.663-5.35-11.708-2.918c-4.045,2.424-5.35,7.663-2.927,11.708l4.386,7.305l-11.605,6.972l-31.693-7.919
			c-4.565-1.186-9.208,1.621-10.342,6.204c-1.143,4.565,1.638,9.199,6.212,10.342l15.13,3.78l-18.918,11.358
			c-4.045,2.423-5.35,7.663-2.927,11.708c1.596,2.662,4.42,4.139,7.322,4.139c1.493,0,3.012-0.393,4.386-1.22l18.927-11.349
			l-3.789,15.147c-1.143,4.565,1.638,9.199,6.212,10.342c0.691,0.171,1.391,0.256,2.074,0.256c3.823,0,7.305-2.586,8.269-6.468
			l7.91-31.684l11.614-6.963l4.395,7.313c1.596,2.671,4.42,4.147,7.322,4.147c1.493,0,3.004-0.393,4.386-1.22
			c4.036-2.423,5.35-7.663,2.918-11.708l-4.386-7.313l26.24-15.744l-9.634,38.545c-1.152,4.574,1.63,9.207,6.212,10.342
			c0.691,0.179,1.391,0.265,2.074,0.265c3.823,0,7.296-2.586,8.26-6.468l13.781-55.1l32.273-19.362l-5.478,53.939
			c-0.333,3.328,1.314,6.554,4.215,8.235c1.323,0.768,2.807,1.152,4.275,1.152c1.749,0,3.49-0.529,4.966-1.587l46.234-33.033v39.62
			L207.297,412.1c-3.328,3.336-3.328,8.738,0,12.066c3.337,3.337,8.738,3.337,12.075,0l28.092-28.1v30.601h-8.533
			c-4.71,0-8.533,3.814-8.533,8.533c0,4.719,3.823,8.533,8.533,8.533h8.533v13.534l-23.1,23.1c-3.328,3.336-3.328,8.738,0,12.066
			c3.336,3.337,8.738,3.337,12.075,0l11.025-11.034v22.067c0,4.719,3.823,8.533,8.533,8.533c4.719,0,8.533-3.814,8.533-8.533V481.4
			l11.034,11.034c1.673,1.664,3.857,2.5,6.033,2.5c2.185,0,4.369-0.836,6.042-2.5c3.328-3.328,3.328-8.73,0-12.066l-23.108-23.1
			v-13.534h8.533c4.719,0,8.533-3.814,8.533-8.533c0-4.719-3.814-8.533-8.533-8.533h-8.533v-30.601l28.1,28.1
			c1.673,1.664,3.857,2.5,6.033,2.5c2.185,0,4.369-0.836,6.042-2.5c3.328-3.328,3.328-8.73,0-12.066l-40.175-40.166v-39.62
			l46.242,33.033c2.722,1.946,6.315,2.116,9.199,0.461c2.893-1.655,4.557-4.838,4.267-8.166l-4.907-55.091l32.708,18.944
			l14.609,54.895c1.015,3.823,4.48,6.34,8.243,6.34c0.734,0,1.468-0.094,2.202-0.282c4.557-1.22,7.262-5.896,6.059-10.445
			l-10.231-38.409l26.479,15.343l-4.284,7.39c-2.364,4.079-0.973,9.293,3.106,11.656c1.348,0.785,2.825,1.152,4.267,1.152
			c2.944,0,5.811-1.527,7.398-4.258l4.275-7.39l11.708,6.784l8.405,31.573c1.016,3.823,4.471,6.34,8.243,6.34
			c0.734,0,1.468-0.094,2.202-0.282c4.557-1.22,7.262-5.897,6.059-10.445l-4.019-15.087l19.098,11.059
			c1.34,0.785,2.816,1.152,4.267,1.152c2.944,0,5.811-1.519,7.39-4.258C479.886,380.254,478.495,375.023,474.408,372.668z
			 M156.524,256.145l46.097-21.205l20.634,11.955c-0.811,2.918-1.391,5.931-1.391,9.105c0,3.362,0.64,6.536,1.553,9.609
			l-20.873,12.518L156.524,256.145z M247.464,311.347l-40.798,29.141l4.864-47.846l20.557-12.339
			c4.207,4.139,9.506,7.091,15.377,8.619V311.347z M247.464,223.078c-6.05,1.57-11.486,4.668-15.753,8.994l-20.975-12.151
			l-4.326-48.589l41.054,29.321V223.078z M264.53,200.653l40.969-29.252l-4.446,47.616l-21.137,12.68
			c-4.207-4.13-9.506-7.091-15.386-8.619V200.653z M264.53,311.347v-22.426c6.059-1.57,11.494-4.668,15.761-8.986l20.975,12.151
			l4.326,48.58L264.53,311.347z M309.373,277.06l-20.625-11.947c0.811-2.918,1.382-5.939,1.382-9.114
			c0-3.354-0.631-6.537-1.544-9.609l20.147-12.083l46.447,21.649L309.373,277.06z"/>
	</g>
</g>
</svg>