<?xml version="1.0" encoding="utf-8"?>
<!-- Generator: Adobe Illustrator 24.0.0, SVG Export Plug-In . SVG Version: 6.00 Build 0)  -->
<svg version="1.1" id="Layer_1" xmlns="http://www.w3.org/2000/svg" xmlns:xlink="http://www.w3.org/1999/xlink" x="0px" y="0px"
	 viewBox="0 0 800 800" style="enable-background:new 0 0 800 800;" xml:space="preserve">
<style type="text/css">
	.st0{fill:#334D5C;}
	.st1{fill:#C7E3E7;}
</style>
<circle class="st0" cx="400" cy="400" r="400"/>
<path class="st1" d="M425.1,86v60.4l90.6-50.3v48.3l-90.6,54.3v54.3l90.6-52.3v106.7l48.3-28.2V172.5l44.3-24.1v106.7l60.4-36.3
	l22.1,38.3l-62.4,36.2l92.6,52.3l-40.3,24.2l-96.6-54.3l-48.3,30.2l94.6,52.3l-94.6,54.3l48.3,28.2l98.6-50.3l38.2,22.1l-92.6,54.3
	l62.4,34.2l-20.1,36.2l-62.4-36.2v104.7L564,623.4V518.7l-48.3-30.2v104.6l-90.6-50.3v56.4l90.6,52.3v46.3l-90.6-54.3V714h-46.3
	v-70.4l-92.6,54.3v-46.3l92.6-52.3v-56.4l-94.6,50.3V488.6L236,518.7v104.7l-40.3,22.1V540.9l-64.4,36.2l-20.1-36.2l62.4-34.2
	L83,452.3l36.2-22.1l98.6,50.3l48.3-28.2L171.5,398l94.6-52.3l-48.3-30.2l-98.6,54.3l-40.3-24.2l92.6-52.3l-58.4-36.2l20.1-38.3
	l62.4,36.3V148.4l40.3,24.1v106.7l48.3,28.2V200.7l94.6,52.3v-54.3l-92.6-54.3V96.1l92.6,50.3V86C378.8,86,425.1,86,425.1,86z
	 M260.1,398l50.3,28.2l50.3-28.2l-50.3-26.2L260.1,398z M326.5,283.3v54.3l52.3,28.2v-60.4L326.5,283.3z M326.5,514.7l52.3-22.1
	v-60.4l-52.3,26.2V514.7L326.5,514.7z M425.1,305.4v60.4l50.3-32.2v-50.3L425.1,305.4z M425.1,492.6l50.3,22.1v-50.3l-50.3-32.2
	V492.6z M449.3,398l48.3,28.2l50.3-28.2l-50.3-26.2L449.3,398z"/>
</svg>
