<?xml version="1.0" encoding="iso-8859-1"?>
<!-- Uploaded to: SVG Repo, www.svgrepo.com, Generator: SVG Repo Mixer Tools -->
<!DOCTYPE svg PUBLIC "-//W3C//DTD SVG 1.1//EN" "http://www.w3.org/Graphics/SVG/1.1/DTD/svg11.dtd">
<svg fill="#000000" version="1.1" id="Capa_1" xmlns="http://www.w3.org/2000/svg" xmlns:xlink="http://www.w3.org/1999/xlink" 
	 width="800px" height="800px" viewBox="0 0 346.212 346.212"
	 xml:space="preserve">
<g>
	<path d="M173.109,0C77.666,0,0.012,77.66,0.012,173.105c0,95.435,77.654,173.106,173.098,173.106S346.2,268.54,346.2,173.105
		C346.2,77.66,268.553,0,173.109,0z M320.608,205.496c5.151,5.17,5.151,13.541,0,18.705c-2.589,2.588-5.981,3.873-9.355,3.873
		c-3.387,0-6.773-1.285-9.355-3.873l-35.164-35.164h-58.307l41.09,41.084h49.738c7.302,0,13.223,5.927,13.223,13.223
		c0,7.309-5.921,13.229-13.223,13.229h-23.287l10.16,10.148c5.164,5.164,5.164,13.535,0,18.699c-2.582,2.582-5.98,3.873-9.355,3.873
		c-3.393,0-6.767-1.291-9.355-3.873l-10.147-10.148v23.287c0,7.301-5.921,13.223-13.223,13.223c-7.308,0-13.223-5.928-13.223-13.223
		V248.82l-43.69-43.697v61.615l35.164,35.17c5.176,5.152,5.176,13.523,0,18.688c-2.582,2.594-5.976,3.891-9.35,3.891
		c-3.387,0-6.768-1.297-9.35-3.891l-16.465-16.453V318.5c0,7.296-5.928,13.223-13.227,13.223c-7.304,0-13.219-5.927-13.219-13.223
		v-14.357l-16.465,16.453c-2.579,2.594-5.978,3.891-9.347,3.891c-3.402,0-6.776-1.297-9.353-3.891
		c-5.173-5.164-5.173-13.535,0-18.688l35.165-35.17v-59.699l-39.635,39.644v49.065c0,7.308-5.93,13.229-13.229,13.229
		c-7.311,0-13.22-5.921-13.22-13.229v-22.626l-14.775,14.771c-2.582,2.576-5.959,3.873-9.353,3.873
		c-3.369,0-6.764-1.297-9.346-3.873c-5.17-5.164-5.17-13.534,0-18.711l15.426-15.42H52.623c-7.308,0-13.229-5.921-13.229-13.217
		c0-7.308,5.92-13.229,13.229-13.229h50.383l38.284-38.286H86.027l-34.698,34.695c-2.582,2.594-5.981,3.879-9.353,3.879
		c-3.399,0-6.773-1.285-9.353-3.879c-5.164-5.164-5.164-13.535,0-18.699l16-15.996H27.742c-7.305,0-13.22-5.934-13.22-13.223
		c0-7.306,5.921-13.226,13.22-13.226h21.824L32.63,145.649c-5.164-5.158-5.164-13.529,0-18.699c5.173-5.164,13.535-5.164,18.705,0
		l35.629,35.632h57.64l-41.562-41.553H53.98c-7.305,0-13.226-5.921-13.226-13.226c0-7.308,5.921-13.223,13.226-13.223h22.617
		L61.846,79.818c-5.173-5.17-5.173-13.532,0-18.699c5.17-5.17,13.532-5.17,18.696,0l15.43,15.423V52.599
		c0-7.299,5.909-13.223,13.219-13.223c7.305,0,13.226,5.93,13.226,13.223v50.39l38.29,38.289V86.013l-34.699-34.708
		c-5.17-5.164-5.17-13.532,0-18.699c5.161-5.17,13.529-5.17,18.699,0l16,16.003V27.718c0-7.305,5.915-13.231,13.22-13.231
		s13.231,5.927,13.231,13.231v21.818l16.922-16.931c5.164-5.17,13.534-5.17,18.711,0c5.152,5.167,5.152,13.535,0,18.699
		L187.157,86.94v56.244l42.994-43V50.452c0-7.305,5.921-13.22,13.229-13.22c7.296,0,13.217,5.921,13.217,13.22v23.28l10.148-10.148
		c5.17-5.17,13.541-5.17,18.705,0c5.164,5.173,5.164,13.535,0,18.699l-10.154,10.154h23.286c7.302,0,13.223,5.921,13.223,13.226
		c0,7.299-5.927,13.22-13.223,13.22h-49.737l-43.697,43.694h61.615l35.17-35.165c5.164-5.167,13.529-5.167,18.699,0
		c5.164,5.165,5.164,13.532,0,18.699l-16.465,16.465h14.363c7.302,0,13.211,5.92,13.211,13.225c0,7.296-5.909,13.223-13.211,13.223
		h-14.363L320.608,205.496z"/>
</g>
</svg>