<?xml version="1.0" encoding="utf-8"?>
<!-- Generator: Adobe Illustrator 24.0.0, SVG Export Plug-In . SVG Version: 6.00 Build 0)  -->
<svg version="1.1" id="Layer_1" xmlns="http://www.w3.org/2000/svg" xmlns:xlink="http://www.w3.org/1999/xlink" x="0px" y="0px"
	 viewBox="0 0 800 800" style="enable-background:new 0 0 800 800;" xml:space="preserve">
<style type="text/css">
	.st0{display:none;fill:#334D5C;}
	.st1{fill:#D69472;}
	.st2{fill:#AF7054;}
	.st3{fill:#EED8CB;}
	.st4{fill:#DBB7A5;}
	.st5{fill:#C1C0BB;}
	.st6{fill:#F9E8EC;}
	.st7{fill:#261A15;}
	.st8{fill:#E5D3D8;}
	.st9{fill:#38281F;}
</style>
<path class="st0" d="M800,400C800,179.1,620.9,0,400,0S0,179.1,0,400s179.1,400,400,400S800,620.9,800,400z"/>
<g>
	<path class="st1" d="M397.9,465.9l-9.2,103.7c0,0-12.9,33.5-11.6,50c1.3,16.3,4.5,72.1,4.5,72.1l-5.3,11.1l29.8,40.5
		c-6.9-37.6-2.4-66.3-2.4-66.3l15.8-92.7c0,0,30-77.5,33.7-94.2L397.9,465.9z"/>
	<path class="st1" d="M318.1,417.9c0,0-72.7,13.7-75.8,29.7c-2.1,11.1-1,18.4,38,47.2l50.8,40.1l13.1-14.7c0,0-17.3-24.5-22.1-32.7
		l-16.6-21.4l72.2-4L318.1,417.9z"/>
</g>
<path class="st2" d="M269.1,464.5c0,0,14.7,1,37.1,2.4l-0.6-0.8L269.1,464.5z"/>
<path class="st1" d="M329.2,500.8c0,0,15.3,18.4,21.9,20.8c0,0,3.2,2.3,7.3,0.5c0,0,9.4-6.4,13.4-4.7c0,0,6.1,1.5,8.5,11.9
	c0.6,2.6,1.6,6,0.5,11.6c0,0-0.2,5.8,5,10.2c0,0,10.2,6.8,14.5,9.2c0,0,8.7,5,9.2,11.4c0,0,0.5,6.1-6.6,7.3
	c-7.3,1.1-33.9-11.6-42.7-17.4c0,0-18.5-14.2-26.6-24.2l-24.7-24.8L329.2,500.8z"/>
<g>
	<path class="st3" d="M358.4,522c0,0,9.4-6.4,13.4-4.7c0,0,6.1,1.5,8.5,11.9c0.6,2.6,1.6,6,0.5,11.6c0,0-0.2,5.8,5,10.2
		c0,0,10.2,6.8,14.5,9.2c0,0,8.7,5,9.2,11.4c0,0,0.5,6.1-6.6,7.3c-4.7,0.8-18.1-4.7-29-10C368.2,566.2,354.5,523.8,358.4,522z"/>
	<path class="st3" d="M366.9,552.4c-4,2.6-9.2,4.5-11.8,5.3c2.9,2.4,4.8,3.9,4.8,3.9s0.2,0,0.2,0.2c4.7-1.8,10.2-4.5,10.2-4.5
		L366.9,552.4z"/>
	<path class="st3" d="M363.6,537.5l-2.4-4.2c-10.3,6.8-11.8,15.5-11.8,19.3c1.6,1.5,3.1,2.6,4.5,3.7
		C354.1,544.9,363.6,537.5,363.6,537.5z"/>
</g>
<path class="st4" d="M358.4,522c0,0,0.5-0.3,1.3-0.8c0,0,0,8.4,4.5,23.1c4.2,13.7,11.1,25.5,11.1,25.5c-0.5-0.2-1-0.5-1.5-0.6
	C368.2,566.2,354.5,523.8,358.4,522z"/>
<g>
	<path class="st5" d="M374.8,523.3c0,1.9,1.8,12.3,6,16.6c0.8-5.2-0.2-8.4-0.6-10.8c-0.8-3.7-2.3-6.4-3.5-8.2
		C376,521.1,374.8,521.6,374.8,523.3z"/>
	<path class="st5" d="M404.7,563.5c-2.3-1.9-4.4-3.2-4.4-3.2c-0.5-0.2-1-0.5-1.5-0.8c-3.2-1.9-7.9-5-10.8-6.8
		c-0.3,0.8-0.3,2.4,2.3,3.9c0,0,7.9,5,9.7,6c0,0,4.4,2.7,7.3,3.9C406.4,565.3,405.5,564.3,404.7,563.5z"/>
</g>
<path class="st6" d="M374,388.2c0,0,25,28.7,88.8,30.5c0,0,113.5,42.4,107.4,65c-6.1,22.7-117.5,65.1-324.1-100
	c-12.3-9.8-10.5-33.2,14.2-26.9L374,388.2z"/>
<path class="st1" d="M380.7,664.7c0,0,0,22.1-0.8,29.2c0,0-1.8,4.8-5,7.6c0,0-0.6,0.5-3.4,2.6c-2.4,1.8,5.3,14.8,12.7,21.9
	c0,0,4.7,5.6,6.1,12.3c0,0,1.3,12.1,1.5,17.1c0,0,0.3,10,6,13.5c0,0,5.2,3.2,9.5-2.6c4.4-5.8,1.6-35.1,0.5-45.8c0,0-4-19.5-5.6-35.1
	l-10.6-33.2L380.7,664.7z"/>
<g>
	<path class="st3" d="M374.8,701.5c-2.1,1.1-4.8,3.1-5.2,5.8c0,0-1.6,6.8,6.6,13.7c2.1,1.8,10,10.5,11.6,17.1c0,0,3.9,12.3,4,17.1
		c0,0,0.3,10,6,13.5c0,0,5.2,3.2,9.5-2.6c2.9-3.9,2.7-17.1,1.9-29.8c-0.2-1.6-7.7-2.6-11.1-6.8C388.7,717.9,376,700.8,374.8,701.5z"
		/>
	<path class="st3" d="M393.6,726.6c0,0,8.7-1.9,14.3-4.4c0-0.6-0.2-1.3-0.2-1.9c0,0-0.3-1.8-1-4.7c-4.7,1.8-12.7,4-16,5.8
		L393.6,726.6z"/>
	<path class="st3" d="M380.5,709.4l2.6,4.2c0,0,12.6-5,22.7-2.7c-0.3-1.6-0.6-3.5-1-5.5C399,704.4,388.9,704.7,380.5,709.4z"/>
</g>
<g>
	<path class="st1" d="M381.5,349.5c0,0-9.8-26.6-18.4-36.4l3.7-36.8c0,0,1.3-3.7,7.7-7.7c0,0,12.7-11.1,13.5-14.3
		c0,0,3.5-13.9-0.6-18.9l31.8-13.5c0,0,0.2,19.8,1,27.7c0,0,9.2,15.3,17.1,6.9l2.3-1.1l11.6,27.6l-2.1,27.2L381.5,349.5z"/>
	<path class="st1" d="M439.5,255.4c0,0,31.3-67.2,31.9-68.7l1.5-36.4l17.9-9.4c0,0,1.6,39.3,0.3,44.2c0,0-25.5,77.5-28.9,83.8
		c0,0-2.1,8.5-1.6,17.4L439.5,255.4z"/>
	<path class="st1" d="M490.3,82.5c0,0,0.5-3.9,1.3-6.1c0.5-1.1,0.6-3.7,0.5-6.4c0-2.6,0.6-5,0-5.5c-1.8-1.3-3.5,1.8-3.7,2.3
		c-1.3,3.2-1.9,7.4-1.9,7.4l-1.8,4.4L490.3,82.5z"/>
	<path class="st1" d="M478.7,68.2c-0.2,1.6,6.3,9.4,6.3,9.4l4.7-18.4l4.2-9.7c0.5-1.8,1-2.6-0.3-3.4c-1.1-0.8-2.9,1.5-4,3.2
		l-5.3,7.9L478.7,68.2z"/>
	<path class="st1" d="M486.1,92.9c1-1,4-7.4,4.4-11.3l-4.7-5.2l-0.5-3.7c0-1.5,0.3-4.4,0.3-4.4l-5.8-1.1c-1,1.6-1.3,2.4-1.6,4.5
		c-0.5,2.7-1.6,5.8-2.9,14.7c0,0-2.6,36.1-2.3,63.8l17.9-9.4C489.6,121.4,485.3,93.7,486.1,92.9z"/>
	<path class="st1" d="M367.3,275.5c0,0-65.5,34.8-66.9,35.5l-36.3,3.4l-8.4,18.4c0,0,39.3-0.6,44.2-2.1c0,0,79.5-20.3,85.4-24
		c0,0,5.2-11.8,14-11.6L367.3,275.5z"/>
	<path class="st1" d="M197.3,335.3c0,0-3.9,0.6-6.1,1.6c-1.1,0.5-3.7,0.8-6.3,1c-2.6,0.2-4.8,0.8-5.5,0.2c-1.5-1.8,1.6-3.7,1.9-3.9
		c3.2-1.5,7.4-2.4,7.4-2.4l4.4-2.1L197.3,335.3z"/>
	<path class="st1" d="M182.3,324.5c1.6-0.2,9.7,5.8,9.7,5.8L174,336l-9.5,4.7c-1.6,0.5-2.6,1.1-3.4-0.2c-0.8-1.1,1.3-3.1,3.1-4.2
		l7.7-5.8L182.3,324.5z"/>
	<path class="st1" d="M207.3,330.7c-0.8,1.1-7.3,4.5-11,4.8l-5.3-4.5l-3.7-0.3c-1.5,0.2-4.4,0.5-4.4,0.5l-1.5-5.6
		c1.6-1.1,2.3-1.5,4.4-1.9c2.7-0.6,5.8-1.8,14.5-3.7c0,0,36-4.5,63.7-5.6l-8.4,18.4C236,332.6,208.1,329.7,207.3,330.7z"/>
</g>
<path class="st6" d="M366.3,276c6,1.9,21,16.8,22.6,38.5c0,0,1,23.1-7.6,33.5c0,0,2.3,34.8-7.3,40.1c0,0,15.8,34.2,88.8,30.5
	c0,0,0-57.7-1.8-76.7c0,0,17.4-18.7,11.1-37.4c0,0-19.2-37.9-32.1-50c-0.2-0.2-2.9,1.8-2.7,2.1c3.5,4.7,12.3,18.4,10.3,30.6
	c0,0-4.4,11.6-9.2,19c0,0-25.2-13.5-38.4-19.3c-13.2-5.8-31.3-13.7-31.3-13.7S366,275.9,366.3,276z"/>
<path class="st1" d="M385,164.3c0,0-16.8,2.4-20.5,28.1c-0.3,1.9,1.1,4.2,1.1,5c-0.2,1.1-2.4,7.7-2.3,11.4c0,0,0.2,21,13.4,25
	c0,0,7.4,1.9,10.6,1.9l31.8-13.7c0,0,0.8-21-5.5-32.4C407.4,178,405.6,166.4,385,164.3z"/>
<path class="st7" d="M428.1,181.1c-3.9,3.5-12.3,3.2-17.1-2.1c-4.8-5.3-4.5-13.9-0.6-17.4c3.9-3.5,10-1,14.8,4.5
	C430.1,171.4,432.1,177.5,428.1,181.1z"/>
<path class="st8" d="M408.4,164.4c0,0,16.9,2.1,18.5,17.4l-1.6,1l-18.4-16.4L408.4,164.4z"/>
<path class="st9" d="M375.5,168.5c0,0,14.7-14,39.7,0.8c0,0,26.4,16.8,3.9,52.6c0,0,0.8-38.5-26.8-46.4c-17.7-5-21.4,0.2-23.4,1.8
	C369.2,177.2,372.4,171.1,375.5,168.5z"/>
<ellipse transform="matrix(0.2213 -0.9752 0.9752 0.2213 121.014 571.0391)" class="st1" cx="418.1" cy="209.7" rx="8.2" ry="5"/>
<g>
	<path class="st8" d="M472.1,432.7c0,0,79.8,38.9,87.7,45.6l-11.1,7.4L472.1,432.7z"/>
	<polygon class="st8" points="462.9,434 531.6,491.7 510.8,491.4 	"/>
	<polygon class="st8" points="453,433.4 490.6,491.1 469.8,488.2 	"/>
	<polygon class="st8" points="440.1,431 457.1,486.1 435,478.8 	"/>
	<polygon class="st8" points="426.1,426.4 422.4,475.8 406.4,468.4 	"/>
	<polygon class="st8" points="370.5,392.4 266.2,369.5 284.2,391 	"/>
	<polygon class="st8" points="381.3,400.8 296.8,404.8 319.5,419.2 	"/>
	<polygon class="st8" points="395.3,412.3 339.9,432.4 366.3,447.4 	"/>
	<polygon class="st8" points="410.2,419.8 378.9,454.2 393.9,462.2 	"/>
</g>
</svg>
