<?xml version="1.0" encoding="utf-8"?>
<!-- Generator: Adobe Illustrator 24.0.0, SVG Export Plug-In . SVG Version: 6.00 Build 0)  -->
<svg version="1.1" id="Layer_2_1_" xmlns="http://www.w3.org/2000/svg" xmlns:xlink="http://www.w3.org/1999/xlink" x="0px" y="0px"
	 viewBox="0 0 800 800" style="enable-background:new 0 0 800 800;" xml:space="preserve">
<style type="text/css">
	.st0{fill:#C4A926;}
	.st1{fill:none;stroke:#202128;stroke-width:10.3805;stroke-linecap:round;stroke-linejoin:round;stroke-miterlimit:25;}
	.st2{fill:#F1E175;}
	.st3{fill:#DDC952;}
	.st4{fill:#616834;}
	.st5{fill:#909650;}
	.st6{fill:#EA563A;}
</style>
<title></title>
<path class="st0" d="M439.9,66.9c0.1-22-17.7-40-39.8-40c-22-0.1-40,17.7-40,39.8c0,14,7.2,26.9,19.1,34.2v50.5h41.5v-50.9
	C432.5,93.3,439.7,80.6,439.9,66.9z"/>
<path class="st1" d="M143.1,615.4c34.3-7.2,69-12.1,103.9-14.8"/>
<path class="st2" d="M400,128.8c9.6,0,19.2,1.2,28.5,3.6c45.9,11.9,169.7,58.3,180.7,216.4c13.2,193.7,72.4,311.5,110.2,345.6H80.9
	c37.8-34.1,97-151.6,109.9-345.6c10.9-158,134.8-204.5,180.7-216.7C380.8,129.8,390.4,128.7,400,128.8z"/>
<ellipse class="st3" cx="400" cy="694.4" rx="319.1" ry="28"/>
<path class="st3" d="M294.9,601.4c33.6-1.7,69-2.6,105.1-2.6c75.1-0.7,150.2,3.9,224.7,13.7c16,2.3,30.3,5,42.4,7.7h1.2
	c0.7,0,1.5-0.2,2.2-0.5c-1.5-3.4-3.1-7-4.6-10.5c-11.6-2.6-24.8-5-39.7-7.1c-75-9.7-150.5-14.2-226.1-13.5
	c-36.3,0-71.8,0.9-105.7,2.6c-2.8,0.2-5,2.6-5,5.4c0.1,2.7,2.4,4.8,5.1,4.7C294.6,601.4,294.7,601.4,294.9,601.4z"/>
<path class="st3" d="M314.8,553.7c27.7-1.1,56.4-1.7,85.2-1.7c96.8,0,187.2,6.4,247.9,17.5h1c0.6,0.1,1.1,0.1,1.7,0
	c-1.2-3.5-2.4-6.8-3.6-10.5c-61.1-11.2-151.1-17.4-247-17.4c-29.1,0-57.9,0.5-85.8,1.7c-2.8-0.3-5.4,1.7-5.8,4.5s1.7,5.4,4.5,5.8
	c0.4,0.1,0.8,0.1,1.3,0L314.8,553.7z"/>
<path class="st3" d="M148.8,571.2c0.6,0.1,1.1,0.1,1.7,0h1c15.5-2.9,34.1-5.6,54.2-7.7c2.8-0.3,4.9-2.9,4.6-5.7
	c-0.4-2.8-2.9-4.8-5.7-4.6c-19.2,2.2-36.7,4.7-52.1,7.7C151.2,564.4,150,567.7,148.8,571.2z"/>
<path class="st3" d="M133,616.9h0.9c15.5-2.9,34.1-5.5,54.2-7.7c2.8-0.3,4.9-2.8,4.6-5.6c0,0,0-0.1,0-0.1c-0.3-2.8-2.9-4.9-5.7-4.6
	c-19.1,2.2-36.3,4.6-51.6,7.4c-1.5,3.6-3,7-4.5,10.4C131.6,616.8,132.3,616.9,133,616.9z"/>
<path class="st4" d="M645.1,32.2L552.1,9l0,0C525,40.9,486,60.3,444.2,62.7l-7.7,0.4l-27.1,79.5l78.3,30.1l5.4-5.8
	c28.7-30.6,68.7-48.2,110.6-48.6l0,0L645.1,32.2z"/>
<path class="st5" d="M649.8,30.1c-1.2-2.6-4.3-3.7-6.9-2.6L511.8,88.9c9.3-12.3,14.7-27.2,15.5-42.6c-0.1-2.8-2.4-5-5.3-5
	c0,0-0.1,0-0.1,0c-2.9,0.1-5.1,2.5-5,5.3c0,0,0,0,0,0c0.8,22.2-21.6,47.6-25.5,51.8l-83.7,39.1c-2.6,1.2-3.8,4.3-2.6,6.9
	c0.8,1.9,2.7,3.1,4.7,3c0.8,0,1.6-0.2,2.2-0.5l36.3-17c5.3,0,32.5,0.9,50.3,16.8c2.1,1.9,5.4,1.7,7.3-0.4c1.9-2.1,1.8-5.4-0.4-7.3
	c0,0,0,0,0,0c-11.1-9.2-24.5-15.3-38.7-17.7l62-29.1c21.9-1.5,43.7,3.7,62.6,15c0.8,0.6,1.8,0.9,2.8,0.9c1.8,0,3.4-0.9,4.4-2.3
	c1.5-2.4,0.8-5.6-1.5-7.2c-14.2-8.6-30-14.1-46.5-16.3L647.7,37C650.2,35.6,651.1,32.6,649.8,30.1z"/>
<path class="st4" d="M150.9,32.2L243.5,9l0,0c27.1,31.9,66.1,51.3,107.8,53.7l7.7,0.4l27.2,79.5l-78.2,29.9l-5.4-5.8
	c-28.7-30.5-68.5-48-110.4-48.3l0,0L150.9,32.2z"/>
<path class="st5" d="M146.2,30.1c1.2-2.6,4.3-3.7,6.9-2.6l131.2,61.4c-9.3-12.3-14.7-27.2-15.5-42.6c-0.2-2.9,1.9-5.4,4.8-5.6
	c2.9-0.2,5.4,1.9,5.6,4.8c0,0.4,0,0.8,0,1.2c-0.7,22.2,21.7,47.6,25.6,51.8l83.7,39.1c2.6,1.2,3.8,4.3,2.6,6.9
	c-0.8,1.9-2.7,3.1-4.7,3c-0.8,0-1.6-0.2-2.2-0.5l-36.3-17c-5.3,0-32.5,0.9-50.3,16.8c-1,0.8-2.2,1.3-3.5,1.3c-1.4,0-2.8-0.6-3.8-1.7
	c-2-2-2-5.3,0-7.3c0,0,0,0,0,0c11.1-9.2,24.5-15.3,38.7-17.7l-62-29.1c-21.9-1.5-43.7,3.7-62.6,15c-0.8,0.6-1.8,0.9-2.9,0.9
	c-2.9,0-5.2-2.4-5.1-5.3c0-1.7,0.9-3.3,2.3-4.3c14.2-8.6,30-14.1,46.5-16.3L148.7,37C146.1,35.7,145,32.7,146.2,30.1z"/>
<circle class="st6" cx="375.7" cy="144.5" r="23.8"/>
<circle class="st6" cx="424.2" cy="145.2" r="23.8"/>
<circle class="st6" cx="399.7" cy="103.4" r="23.8"/>
<path class="st3" d="M213.1,366.3h-0.6c-2.8-0.3-4.8-2.7-4.5-5.5c0-0.1,0-0.2,0-0.2c2.2-18.4,4.9-34.9,8.3-51.7
	c2.2-10.8,5.1-21.5,8.7-32c0.7-2.8,3.5-4.5,6.3-3.8c2.8,0.7,4.5,3.5,3.8,6.3c-0.1,0.3-0.2,0.6-0.3,0.9c-3.5,10.1-6.2,20.5-8.3,31
	c-3.3,16.5-6,32.7-8.2,50.9C217.7,364.5,215.5,366.3,213.1,366.3z"/>
<path class="st3" d="M240.6,258.6c-0.8,0-1.7-0.2-2.4-0.5c-2.5-1.3-3.5-4.4-2.2-7c23.9-45.7,55.5-57.5,56.9-58
	c2.7-0.9,5.6,0.5,6.6,3.1c1,2.7-0.4,5.7-3.1,6.7c0,0,0,0,0,0c0,0-29.3,11.2-51.3,53.1C244.2,257.5,242.5,258.5,240.6,258.6z"/>
<path class="st0" d="M349,751.3c0,22,17.8,39.9,39.9,39.9c3.3,0,6.5-0.4,9.7-1.2c14.2-3.4,25.3-14.3,29-28.4
	c4.3-17-2.9-34.9-17.9-44v-32.5c0-10.3-8.4-18.7-18.7-18.7h0h-4.2c-10.3,0-18.7,8.4-18.7,18.7l0,0v32.5
	C356.3,724.7,349.1,737.5,349,751.3z"/>
<path class="st2" d="M388.9,783.5h-1c-25.8-5.3-30.4-25.2-29.3-34.9c0.2-2.9,2.7-5,5.5-4.8s5,2.7,4.8,5.5c0,0.2,0,0.3-0.1,0.5
	c0,1.9-1.2,18.9,21,23.2c2.8,0.5,4.7,3.3,4.1,6.1c0,0,0,0,0,0C393.6,781.7,391.4,783.5,388.9,783.5z"/>
</svg>
