<?xml version="1.0" encoding="utf-8"?>
<!-- Generator: Adobe Illustrator 24.0.0, SVG Export Plug-In . SVG Version: 6.00 Build 0)  -->
<svg version="1.1" id="Layer_1" xmlns="http://www.w3.org/2000/svg" xmlns:xlink="http://www.w3.org/1999/xlink" x="0px" y="0px"
	 viewBox="0 0 800 800" style="enable-background:new 0 0 800 800;" xml:space="preserve">
<style type="text/css">
	.st0{fill:#95C4F8;}
	.st1{fill:#7E7E92;}
	.st2{fill:#6E6E84;}
	.st3{fill:#5F5F74;}
	.st4{fill:#36B294;}
	.st5{fill:#00A07D;}
	.st6{fill:#52C883;}
	.st7{fill:#34BE71;}
	.st8{fill:#674447;}
	.st9{fill:#44A67D;}
	.st10{fill:#FFFFFF;}
	.st11{fill:#C3E1F5;}
	.st12{fill:#EDF5FB;}
	.st13{fill:#E0E0E2;}
	.st14{fill:#C6C5CA;}
	.st15{fill:#7C84E8;}
	.st16{fill:#515BE0;}
	.st17{fill:#A258CD;}
	.st18{fill:#933EC5;}
</style>
<path class="st0" d="M0,400c0,220.9,179.1,400,400,400s400-179.1,400-400S620.9,0,400,0S0,179.1,0,400z"/>
<path class="st1" d="M33.6,239.5C21.5,267.2,12.5,296.2,7,325.9c-0.5,13.3-0.7,26.5-0.7,39.8c0,36.6,5.3,72,15.2,105.7
	c72.9,3.7,188.2,3.7,188.2,3.7l63.3-96.9l-41.7-1C153.2,377.1,99.8,267.8,33.6,239.5L33.6,239.5z M686.7,320.8
	c-42.9,0-60.6,56.7-117.9,56.7l18.8,131.9c0,0,146.9,12.3,159.4,15.5c7.1,1.8,23.2-3.4,35.8-8.3C793.9,479.7,800,440.6,800,400
	c0-2.9-0.2-5.7-0.2-8.5C797.5,389.6,711.1,320.8,686.7,320.8L686.7,320.8z"/>
<path class="st2" d="M529.2,718.8l212.6-110.9c24.5-40.2,42-85,51.1-132.9c0,0-84.3,2.3-117.9-12.5
	c-41.3-18.3-134.9-147.4-193.5-224.9c-10.9-13.7-21.5-26.4-31.5-37.6c-17.4-19.2-68.1-25-75-25c-6,0-54.6,57.2-90.1,100
	c-53.5,65.3-116.4,144-147.4,175l-52,106.3L529.2,718.8z"/>
<path class="st3" d="M751,498.9c-61.5,0-122.5,9.2-194.8-52.1c-28.1-23.8-55.9-46.7-79.7-18c-14.8,18-42.3,77.3-76.6,52.3
	S351.4,379,318.8,378.1c-26.6-0.7-48.4,38-68,16.7c-12.9-14.1-131.2,68.5-131.2,68.5s121.1,107.5,138.3,106.5s118.6,14.5,118.6,14.5
	s36,42.4,54.4,35.6s63.6,7.4,89.5-4.1c25.9-11.5,149.3-62.6,152-68.8C675,540.6,751,498.9,751,498.9L751,498.9z"/>
<path class="st4" d="M274.6,475c-19.8-9.1-15.5-32.7-37.5-39.8c-21.5-7-24.2-12.1-36.3-22.7s-28.6,3.6-39.5-18
	c-6.3-12.5-33.2-18-44.5-28.9s-31.6-7.3-40.2-10.9c-18.8-7.8-11.3-19.1-33.6-16.8c-15.6,1.6-23.9-10.9-35.5-14.8
	c-3.5,17.9-5.8,36-6.8,54.2l97.8,53.2c0,0,95.3,30.9,102.3,33.6s114.5,49.2,111.3,44.9C306.4,501.4,290.4,482.2,274.6,475L274.6,475
	z"/>
<path class="st5" d="M360.5,561.4c-5.8-2.9-19.4-10.2-31.3-26s-12-26-26-33.1c-15.8-7.9-15.6-8.6-34.4-18s-18.8-15.6-30.1-28.9
	c-12.4-14.6-31.7-13.8-50.5-22.1s-26.7-23.1-38.2-28.7s-18.8,0.5-29.2-4.8c-14.1-7.2-14.9-27.6-32.6-25.6c-17.6,2.1-22,8.3-34.1-2.5
	c-20.2-18-29.6-6.6-52-13.5C0.7,372.2,0,386.1,0,400c0,33.8,4.2,66.5,12.1,97.9c17.8,3.5,37.3,7.2,56.7,11.5
	c60.5,13.5,219.7,63.5,276,72.9S366.3,564.3,360.5,561.4L360.5,561.4z"/>
<path class="st6" d="M1.5,433.4c9.6,116.4,69,218.6,156.9,285.4h144.4L500,600C336,600,244.6,434.1,1.5,433.4z"/>
<path class="st7" d="M400,800c195.3,0,357.8-140,392.9-325C645,475,464.1,660.1,300,637.5c-90.6-12.5-114.1-37.6-231.2-13.1
	C140.8,730.4,262.3,800,400,800z"/>
<path class="st8" d="M345.3,696.5c-2.1,0-3.8-1.7-3.8-3.8c0,0,0,0,0,0v-40.7c0-2.1,1.7-3.8,3.8-3.8c0,0,0,0,0,0
	c2.1,0,3.8,1.7,3.8,3.8c0,0,0,0,0,0v40.7C349.1,694.8,347.4,696.5,345.3,696.5C345.3,696.5,345.3,696.5,345.3,696.5z"/>
<path class="st5" d="M369.2,648.6c0,13.1-10.7,23.8-23.8,23.8c-13.1,0-23.8-10.7-23.8-23.8c0-13.1,10.7-53.6,23.8-53.6
	C358.5,595,369.2,635.5,369.2,648.6z"/>
<path class="st4" d="M345.3,595c-3.3,0-6.4,2.6-9.3,6.6c12,0,21.8,37,21.8,49c0,10.5-7.4,19.2-17.2,21.3c1.6,0.3,3.1,0.5,4.7,0.5
	c13.1,0,23.8-10.7,23.8-23.8C369.2,635.5,358.5,595,345.3,595L345.3,595z"/>
<path class="st8" d="M652.6,584.2c-2.9,0-5.2-2.3-5.2-5.2c0,0,0,0,0,0v-56.2c0-2.9,2.3-5.2,5.2-5.2c0,0,0,0,0,0
	c2.9,0,5.2,2.3,5.2,5.2c0,0,0,0,0,0V579C657.8,581.9,655.5,584.2,652.6,584.2C652.6,584.2,652.6,584.2,652.6,584.2L652.6,584.2z"/>
<path class="st5" d="M685.5,518.1c0,18.2-14.7,32.9-32.9,32.9c-18.2,0-32.9-14.7-32.9-32.9c0-18.2,14.7-74,32.9-74
	C670.8,444.1,685.5,499.9,685.5,518.1z"/>
<path class="st4" d="M652.6,444.1c-4.6,0-8.9,3.5-12.8,9.1h0c16.6,0,30.1,51.1,30.1,67.7c0,14.5-10.2,26.5-23.8,29.4
	c2.1,0.4,4.3,0.7,6.5,0.7c18.2,0,32.9-14.7,32.9-32.9C685.5,499.9,670.8,444.1,652.6,444.1L652.6,444.1z"/>
<path class="st8" d="M737.2,591.6c-2.9,0-5.2-2.3-5.2-5.2c0,0,0,0,0,0v-56.2c0-2.9,2.3-5.2,5.2-5.2c2.9,0,5.2,2.3,5.2,5.2v56.2
	C742.5,589.2,740.1,591.6,737.2,591.6z"/>
<path class="st5" d="M770.1,525.4c0,18.2-14.7,32.9-32.9,32.9s-32.9-14.7-32.9-32.9c0-18.2,14.7-74,32.9-74
	C755.4,451.4,770.1,507.2,770.1,525.4z"/>
<path class="st4" d="M737.2,451.4c-4.6,0-8.9,3.5-12.8,9.1h0c16.6,0,30.1,51.1,30.1,67.7c0,14.5-10.2,26.5-23.8,29.4
	c2.1,0.4,4.3,0.7,6.5,0.7c18.2,0,32.9-14.7,32.9-32.9C770.1,507.2,755.4,451.4,737.2,451.4L737.2,451.4z"/>
<path class="st8" d="M456.6,662.9c-2.9,0-5.2-2.3-5.2-5.2c0,0,0,0,0,0v-56.2c0-2.9,2.3-5.2,5.2-5.2c2.9,0,5.2,2.3,5.2,5.2v56.2
	C461.8,660.6,459.5,662.9,456.6,662.9C456.6,662.9,456.6,662.9,456.6,662.9z"/>
<path class="st5" d="M489.4,596.8c0,18.2-14.7,32.9-32.9,32.9c-18.2,0-32.9-14.7-32.9-32.9s14.7-74,32.9-74S489.4,578.6,489.4,596.8
	z"/>
<path class="st4" d="M456.6,522.8c-4.6,0-8.9,3.5-12.8,9.1h0c16.6,0,30.1,51.1,30.1,67.7c0,14.5-10.2,26.5-23.8,29.4
	c2.1,0.4,4.3,0.7,6.5,0.7c18.2,0,32.9-14.7,32.9-32.9C489.4,578.6,474.7,522.8,456.6,522.8L456.6,522.8z"/>
<path class="st8" d="M387.8,687.7c-2.7,0-4.9-2.2-4.9-4.9c0,0,0,0,0,0v-52.3c0-2.7,2.2-4.9,4.9-4.9c2.7,0,4.9,2.2,4.9,4.9v52.3
	C392.7,685.5,390.5,687.7,387.8,687.7C387.8,687.7,387.8,687.7,387.8,687.7z"/>
<path class="st5" d="M418.4,626.1c0,16.9-13.7,30.6-30.6,30.6c-16.9,0-30.6-13.7-30.6-30.6s13.7-68.9,30.6-68.9
	C404.7,557.2,418.4,609.2,418.4,626.1z"/>
<path class="st4" d="M387.8,557.2c-4.2,0-8.3,3.3-12,8.5h0c15.5,0,28,47.6,28,63c0,13.5-9.5,24.7-22.1,27.4c2,0.4,4,0.6,6.1,0.6
	c16.9,0,30.6-13.7,30.6-30.6C418.4,609.2,404.7,557.2,387.8,557.2L387.8,557.2z"/>
<path class="st9" d="M759,576.4c-221.5-42-268.3,130.3-615.5,130.3C212.9,764.8,302.3,800,400,800C557.6,800,693.8,708.8,759,576.4
	L759,576.4z"/>
<path class="st10" d="M554.8,257.7c0-19.5,15.8-35.4,35.4-35.4c3,0,5.8,0.5,8.5,1.1c9.2-10,22.3-16.3,37-16.3
	c27.9,0,50.6,22.6,50.6,50.6L554.8,257.7L554.8,257.7z"/>
<path class="st11" d="M481.5,237.6c-10.9-13.7-21.5-26.4-31.5-37.6c-17.4-19.2-68.1-25-75-25c-6,0-54.6,57.2-90.1,100
	c-13.6,16.6-27.8,34.1-41.9,51.4c6.1,8.5,17.9,20.5,35.5,18.8c34.5-3.4,41.2-43.7,67.3-40.4c35.5,4.6,30.1,107.6,67.3,107.6
	c36.2,0,11.1-78.1,53.8-94.2c31.5-11.8,43.1,22,96.1,26.4C533.9,307.7,504.9,268.5,481.5,237.6z"/>
<path class="st12" d="M496.5,257.4c-5.2-6.9-10.2-13.6-15-19.9c-10.9-13.7-21.5-26.4-31.5-37.6c-17.4-19.2-68.1-25-75-25
	c-4.2,0-29.1,27.8-55.8,59.1c29.2-23.2,45.1-13.6,50.5,13.5c12.5,62.6,26,112.8,41.7,73.3s8.8-62.3,54.6-57.6
	C484.1,265.1,487.9,259.8,496.5,257.4L496.5,257.4z"/>
<path class="st10" d="M188.2,275c0-21.2,17.2-38.4,38.4-38.4c3.2,0,6.3,0.5,9.2,1.2c10-10.8,24.2-17.7,40.1-17.7
	c30.3,0,54.9,24.6,54.9,54.9L188.2,275L188.2,275z M574.2,249.4c-2.7,0-5.2,0.5-7.6,1.3c-7.7-11.1-20.5-18.3-34.9-18.3
	s-27.3,7.3-34.9,18.3c-2.4-0.8-5-1.3-7.6-1.3c-14.1,0-25.6,11.4-25.6,25.6h136.3C599.7,260.9,588.3,249.4,574.2,249.4z"/>
<path class="st10" d="M197.6,228.2c-2,0-4,0.4-5.8,1c-5.8-8.4-15.5-13.9-26.5-13.9s-20.7,5.5-26.5,13.9c-1.8-0.6-3.8-1-5.8-1
	c-10.7,0-19.4,8.7-19.4,19.4H217C217,236.9,208.3,228.2,197.6,228.2z"/>
<path class="st10" d="M486.6,67.6c-1.9,0-3.7,0.4-5.4,0.9c-5.4-7.8-14.5-13-24.7-13s-19.3,5.1-24.7,13c-1.7-0.5-3.5-0.9-5.4-0.9
	c-3.5,0-6.7,1-9.4,2.7c-5.8-12.7-18.6-21.5-33.4-21.5c-10.7,0-20.2,4.6-27,11.9c-2-0.5-4.1-0.8-6.2-0.8c-14.3,0-25.8,11.6-25.8,25.8
	h180.2C504.7,75.7,496.6,67.6,486.6,67.6L486.6,67.6z"/>
<path class="st10" d="M554.8,77c-1.9,0-3.7,0.4-5.4,0.9c-5.4-7.8-14.5-13-24.7-13s-19.3,5.1-24.7,13c-1.7-0.5-3.5-0.9-5.4-0.9
	c-3.5,0-6.7,1-9.4,2.7c-5.8-12.7-18.6-21.5-33.4-21.5c-10.7,0-20.2,4.6-27,11.9c-2-0.5-4.1-0.8-6.2-0.8c-14.2,0-25.8,11.6-25.8,25.8
	h180.2C572.9,85.1,564.8,77,554.8,77L554.8,77z"/>
<path class="st10" d="M284.8,148.7c-1.5,0-3,0.3-4.4,0.7c-4.4-6.4-11.8-10.6-20.2-10.6c-6.2,0-11.8,2.3-16.1,6.1
	c-5.9-8.5-15.7-14.1-26.8-14.1c-9.4,0-17.9,4.1-23.8,10.5c-1.8-0.4-3.6-0.7-5.5-0.7c-12.6,0-22.8,10.2-22.8,22.8h134.3
	C299.6,155.3,293,148.7,284.8,148.7L284.8,148.7z"/>
<path class="st10" d="M701.7,137.5c-5.9-6.7-11.9-13.3-18.1-19.6c-0.5,0.4-1,0.7-1.5,1.1c-5.9-8.5-15.7-14.1-26.8-14.1
	c-9.5,0-17.9,4.1-23.8,10.5c-1.8-0.4-3.6-0.7-5.5-0.7c-12.6,0-22.8,10.2-22.8,22.8H701.7z"/>
<path class="st11" d="M751,355.1c-24.8-17.3-52.2-34.3-64.4-34.3c-27.2,0-44.3,22.7-67.7,39.4l0,0c38.8-6.6,41.6,43.4,59.6,43.4
	c21,0,21.6-26.8,42.2-17.7C760.9,403.6,730.7,362.2,751,355.1L751,355.1z"/>
<path class="st12" d="M726.7,339c-16.6-10.4-31.8-18.1-40-18.1c-18.6,0-32.4,10.6-46.8,22.7c20.5,8.9,36.7,34.9,61.8,18.2
	C718.3,350.6,721.4,343.9,726.7,339z"/>
<path class="st8" d="M608,607.7c-3.6,0-6.5-2.9-6.5-6.5c0,0,0,0,0,0v-69.9c0-3.6,2.9-6.5,6.5-6.5c3.6,0,6.5,2.9,6.5,6.5v69.9
	C614.5,604.8,611.6,607.7,608,607.7C608,607.7,608,607.7,608,607.7z"/>
<path class="st5" d="M648.9,525.4c0,22.6-18.3,40.9-40.9,40.9c-22.6,0-40.9-18.3-40.9-40.9c0-22.6,18.3-92,40.9-92
	C630.6,433.4,648.9,502.8,648.9,525.4z"/>
<path class="st4" d="M608,433.4c-5.7,0-11.1,4.4-16,11.3h0c20.7,0,37.4,63.5,37.4,84.2c0,18-12.7,33-29.6,36.6
	c2.6,0.5,5.4,0.8,8.1,0.8c22.6,0,40.9-18.3,40.9-40.9C648.9,502.8,630.6,433.4,608,433.4z"/>
<path class="st8" d="M697.3,597.6c-3.4,0-6.1-2.7-6.1-6.1c0,0,0,0,0,0v-66c0-3.4,2.7-6.1,6.1-6.1s6.1,2.7,6.1,6.1v66
	C703.4,594.9,700.7,597.6,697.3,597.6C697.3,597.6,697.3,597.6,697.3,597.6z"/>
<path class="st5" d="M735.9,519.8c0,21.3-17.3,38.6-38.6,38.6s-38.6-17.3-38.6-38.6c0-21.3,17.3-86.9,38.6-86.9
	C718.6,432.9,735.9,498.5,735.9,519.8z"/>
<path class="st4" d="M697.3,432.9c-5.4,0-10.5,4.1-15.1,10.7h0c19.5,0,35.4,60,35.4,79.6c0,17-12,31.2-28,34.6
	c2.5,0.5,5.1,0.8,7.7,0.8c21.3,0,38.6-17.3,38.6-38.6C735.9,498.5,718.6,432.9,697.3,432.9L697.3,432.9z"/>
<path class="st8" d="M557.9,615.1c-3,0-5.4-2.4-5.4-5.4l0,0v-57.7c0-3,2.4-5.4,5.4-5.4c3,0,5.4,2.4,5.4,5.4v57.7
	C563.3,612.7,560.9,615.1,557.9,615.1L557.9,615.1z"/>
<path class="st5" d="M591.6,547.2c0,18.6-15.1,33.7-33.7,33.7c-18.6,0-33.7-15.1-33.7-33.7c0-18.6,15.1-75.9,33.7-75.9
	C576.5,471.3,591.6,528.6,591.6,547.2L591.6,547.2z"/>
<path class="st4" d="M557.9,471.3c-4.7,0-9.1,3.6-13.2,9.3h0c17.1,0,30.9,52.4,30.9,69.5c0,14.8-10.5,27.2-24.4,30.2
	c2.2,0.4,4.4,0.7,6.7,0.7c18.6,0,33.7-15.1,33.7-33.7C591.6,528.6,576.5,471.3,557.9,471.3L557.9,471.3z"/>
<path class="st8" d="M512.5,675.7c-4.2,0-7.6-3.4-7.6-7.6c0,0,0,0,0,0v-81.9c0-4.2,3.4-7.6,7.6-7.6c4.2,0,7.6,3.4,7.6,7.6v81.9
	C520.1,672.3,516.7,675.7,512.5,675.7C512.5,675.7,512.5,675.7,512.5,675.7L512.5,675.7z"/>
<path class="st5" d="M560.4,579.2c0,26.5-21.5,48-48,48c-26.5,0-48-21.5-48-48c0-26.5,21.5-107.9,48-107.9
	C538.9,471.3,560.4,552.7,560.4,579.2z"/>
<path class="st4" d="M512.5,471.3c-6.6,0-13,5.1-18.7,13.2h0c24.2,0,43.9,74.5,43.9,98.8c0,21.1-14.9,38.7-34.7,42.9
	c3.1,0.6,6.3,1,9.5,1c26.5,0,48-21.5,48-48C560.4,552.7,538.9,471.3,512.5,471.3L512.5,471.3z"/>
<path class="st3" d="M400,800c105.3,0,200.9-40.7,272.3-107.2c-43.4,7.2-109.4-66.3-178.1-39.5c-30.6,11.9-128,94.5-212.8,128.6
	C318.9,793.6,358.7,800,400,800z"/>
<path class="st2" d="M494.2,653.4c-30.6,11.9-128,94.5-212.8,128.6c2.9,0.9,5.8,1.5,8.7,2.4c85.8-20.3,186.8-110.9,220.3-111.9
	c9.6-0.3,71.4,46.3,106.1,63.8c19.9-12.8,38.5-27.3,55.8-43.4C628.9,700,562.9,626.6,494.2,653.4L494.2,653.4z"/>
<path class="st13" d="M434.9,143.5c0,1.7,0,15.4,0,17.4h-14.5v-35.7c-6.1,0-34.6,0-40.7,0c0,0.8,0,33.7,0,35.7h-14.5v-17.4
	c-4.4,0-23.2,0-26.1,0c0,2.9,0,65.1,0,66.8c4.6,0,116.8,0,122,0v-66.8C459.8,143.5,436,143.5,434.9,143.5z"/>
<path class="st14" d="M461,143.5c-1.2,0-25,0-26.1,0c0,1.7,0,15.4,0,17.4h-14.5v-35.7c-2.9,0-11.6,0-20.3,0v85.1c29,0,58.4,0,61,0
	V143.5z"/>
<path class="st15" d="M428.8,128.4l-24.9-49.4c-1.6-3.2-6.2-3.2-7.8,0l-24.9,49.4c-1.4,2.9,0.7,6.3,3.9,6.3h49.8
	C428.1,134.8,430.2,131.3,428.8,128.4z"/>
<path class="st16" d="M403.9,79.1c-0.8-1.6-2.4-2.4-3.9-2.4v58.1h24.9c3.2,0,5.3-3.4,3.9-6.3L403.9,79.1z"/>
<path class="st15" d="M466.3,145.9l-14.5-29c-1.6-3.2-6.2-3.2-7.8,0l-14.5,29c-1.4,2.9,0.7,6.3,3.9,6.3h29
	C465.7,152.2,467.8,148.8,466.3,145.9z"/>
<path class="st16" d="M451.8,116.8c-0.8-1.6-2.4-2.4-3.9-2.4v37.8h14.5c3.2,0,5.3-3.4,3.9-6.3L451.8,116.8z"/>
<path class="st15" d="M370.5,145.9l-14.5-29c-1.6-3.2-6.2-3.2-7.8,0l-14.5,29c-1.4,2.9,0.7,6.3,3.9,6.3h29
	C369.8,152.2,371.9,148.8,370.5,145.9z"/>
<path class="st16" d="M356,116.8c-0.9-1.8-2.7-2.6-4.5-2.4v37.7h15.1c3.2,0,5.3-3.4,3.9-6.3L356,116.8z"/>
<path class="st17" d="M400,175.4c-11.2,0-20.3,9.1-20.3,20.3v14.5h40.7v-14.5C420.3,184.5,411.2,175.4,400,175.4z"/>
<path class="st18" d="M400,175.4L400,175.4v34.9h20.3v-14.5C420.3,184.5,411.2,175.4,400,175.4z"/>
</svg>
