<svg xmlns="http://www.w3.org/2000/svg" viewBox="0 0 512 512"><defs><style>.cls-1{isolation:isolate;}.cls-2{fill:#9af4ef;}.cls-3{fill:#f26e64;}.cls-4{fill:#e0b587;}.cls-5{fill:#ca9f7c;}.cls-6{fill:#94d75b;}.cls-7{fill:#b0eb81;}.cls-8{fill:#71be63;}.cls-9{fill:#f3e6d1;}.cls-10{fill:#ccbebe;}.cls-11{fill:#ec6e4d;}.cls-12{fill:#fffce5;}.cls-13{fill:#ebd7c8;}.cls-14{fill:#ff8562;}.cls-15{fill:#d2d2c8;}.cls-16{fill:#63a0b5;}.cls-17{fill:#fff;}.cls-18{opacity:0.6;}.cls-19{fill:#86646a;}.cls-20{fill:#745154;}.cls-21{fill:#43ab5f;}.cls-22{fill:#926e79;}.cls-23{fill:#1fade8;mix-blend-mode:overlay;}</style></defs><title>Asset 1</title><g class="cls-1"><g id="Layer_2" data-name="Layer 2"><g id="Capa_1" data-name="Capa 1"><circle class="cls-2" cx="256" cy="256" r="256"/><polygon class="cls-3" points="267.67 178.26 267.67 188 148.33 188 148.33 178.26 144 178.26 144 188 144 221 148.33 221 267.67 221 272 221 272 188 272 178.26 267.67 178.26"/><path class="cls-4" d="M307,242.63c85-42.13,93-12,149,20.86,9.84,5.77,45.33,5.32,45.33,5.32L472,280l-80-8Z"/><path class="cls-5" d="M508.73,296.81A257.73,257.73,0,0,0,512,256c0-3.46-.12-6.9-.26-10.33-46.41-24.67-90.5,9.83-118.35,9.83Z"/><path class="cls-4" d="M.43,270.4c15,1.3,32.25,2.39,34.24,1.6C38,270.67,72,243.18,72,243.18,58.17,239.93,26.34,214.79,3.67,213A257.27,257.27,0,0,0,0,256C0,260.83.16,265.63.43,270.4Z"/><path class="cls-5" d="M144,248.45s-25.22-17.8-44.51-17.8c-26.32,0-42.87,24.49-99.46,26.51a258,258,0,0,0,3.16,39.17c22.34-.75,91.61-10.56,101.48-9.83,11.33.83,81.33-10.5,76-14.5S144,248.45,144,248.45Z"/><path class="cls-6" d="M1.16,280C13.26,410.13,122.71,512,256,512S498.74,410.13,510.84,280c0,0-42.84-34.67-121.51-24-88.95,12.06-197.88,5.91-253.33,8C102.08,265.28,1.16,280,1.16,280Z"/><path class="cls-7" d="M4.29,302.49c146.71-39,309.44-31.05,380.71-34,64.42-2.65,102,8.91,124.35,24.09.59-4.17,1.1-8.36,1.49-12.59,0,0-42.84-34.67-121.51-24-88.95,12.06-197.88,5.91-253.33,8C102.08,265.28,1.16,280,1.16,280c.35,3.81.81,7.59,1.33,11.35S3.61,298.8,4.29,302.49Z"/><path class="cls-8" d="M376,345.5c-48.61,9.39-201-18.5-247-9.5-29.21,5.71-68.48,17.09-103.26,31.79A256.6,256.6,0,0,0,181.8,501l.17,0c1.44.43,106.14-10.35,195.27-19.64A257.08,257.08,0,0,0,479.48,380.86C459,363.65,422.67,336.48,376,345.5Z"/><rect class="cls-3" x="272" y="239" width="88" height="33"/><rect class="cls-9" x="228.4" y="272" width="141.6" height="147"/><rect class="cls-10" x="272" y="272" width="88" height="7.74"/><path class="cls-11" d="M379.83,132.1a3.83,3.83,0,1,0-5.43,3.46v28.87h3.2V135.56A3.82,3.82,0,0,0,379.83,132.1Z"/><rect class="cls-12" x="360" y="199.48" width="32" height="172"/><rect class="cls-13" x="360" y="199.48" width="16" height="172"/><polyline class="cls-14" points="392 199.48 376 143.48 360 199.48"/><rect class="cls-15" x="360" y="220.11" width="32" height="7.75"/><rect class="cls-10" x="360" y="220.11" width="16" height="7.75"/><rect class="cls-15" x="360" y="199.48" width="32" height="7.75"/><rect class="cls-10" x="360" y="199.48" width="16" height="7.75"/><polygon class="cls-11" points="376 143.48 360 199.48 376 199.48 376 143.48"/><path class="cls-16" d="M376,236.72a4.37,4.37,0,0,0-4.37,4.38v9.15h8.75V241.1A4.38,4.38,0,0,0,376,236.72Z"/><path class="cls-16" d="M376,258.47a4.37,4.37,0,0,0-4.37,4.38V272h8.75v-9.15A4.38,4.38,0,0,0,376,258.47Z"/><path class="cls-11" d="M315.83,204.61a3.83,3.83,0,1,0-5.43,3.46v28.87h3.2V208.07A3.82,3.82,0,0,0,315.83,204.61Z"/><rect class="cls-12" x="296" y="272" width="32" height="172"/><rect class="cls-13" x="296" y="272" width="16" height="172"/><polyline class="cls-14" points="328 272 312 216 296 272"/><rect class="cls-15" x="296" y="292.62" width="32" height="7.75"/><rect class="cls-10" x="296" y="292.62" width="16" height="7.75"/><rect class="cls-15" x="296" y="271.99" width="32" height="7.75"/><rect class="cls-10" x="296" y="271.99" width="16" height="7.75"/><polygon class="cls-11" points="312 216 296 272 312 272 312 216"/><path class="cls-16" d="M312,309.23a4.37,4.37,0,0,0-4.37,4.38v9.15h8.75v-9.15A4.38,4.38,0,0,0,312,309.23Z"/><path class="cls-16" d="M312,331a4.37,4.37,0,0,0-4.37,4.38v9.15h8.75v-9.15A4.38,4.38,0,0,0,312,331Z"/><rect class="cls-9" x="144" y="221" width="128" height="147"/><rect class="cls-10" x="144" y="221" width="128" height="7.33"/><path class="cls-11" d="M219.83,84.61a3.83,3.83,0,1,0-5.43,3.46V117h3.2V88.07A3.81,3.81,0,0,0,219.83,84.61Z"/><rect class="cls-12" x="200" y="152" width="32" height="172"/><rect class="cls-13" x="200" y="152" width="16" height="172"/><polyline class="cls-14" points="232 152 216 96 200 152"/><rect class="cls-15" x="200" y="172.63" width="32" height="7.75"/><rect class="cls-10" x="200" y="172.63" width="16" height="7.75"/><rect class="cls-15" x="200" y="152" width="32" height="7.75"/><rect class="cls-10" x="200" y="152" width="16" height="7.75"/><polygon class="cls-11" points="216 96 200 152 216 152 216 96"/><path class="cls-16" d="M216,189.24a4.37,4.37,0,0,0-4.37,4.37v9.15h8.75v-9.15A4.38,4.38,0,0,0,216,189.24Z"/><path class="cls-16" d="M216,211a4.37,4.37,0,0,0-4.37,4.37v9.15h8.75v-9.15A4.38,4.38,0,0,0,216,211Z"/><path class="cls-16" d="M251.63,235.36a4.38,4.38,0,0,0-4.38,4.38v9.15H256v-9.15A4.38,4.38,0,0,0,251.63,235.36Z"/><path class="cls-16" d="M251.63,257.11a4.38,4.38,0,0,0-4.38,4.38v9.15H256v-9.15A4.38,4.38,0,0,0,251.63,257.11Z"/><path class="cls-16" d="M251.63,278.86a4.38,4.38,0,0,0-4.38,4.38v9.15H256v-9.15A4.38,4.38,0,0,0,251.63,278.86Z"/><path class="cls-17" d="M66.45,157.62a26.13,26.13,0,0,1,32.74-25.54,37.6,37.6,0,0,1,65.29,25.54Z"/><path class="cls-17" d="M399,169.43a12.21,12.21,0,0,1,12.21-12.2,11.77,11.77,0,0,1,2.93.4,17.39,17.39,0,0,1,30.2,11.8Z"/><path class="cls-17" d="M385.5,105.15A21.89,21.89,0,0,0,363.85,83a21.26,21.26,0,0,0-5.21.71A30.47,30.47,0,0,0,336,73.55c-17.08,0-30.93,14.15-30.93,31.6Z"/><path class="cls-17" d="M326.62,105.15a15.33,15.33,0,0,0-15.16-15.49,14.61,14.61,0,0,0-3.65.5A21.32,21.32,0,0,0,292,83a21.9,21.9,0,0,0-21.67,22.13Z"/><g class="cls-18"><path class="cls-17" d="M191.58,129.59a17.7,17.7,0,0,0-17.69-17.7,18.08,18.08,0,0,0-4.26.57,25.22,25.22,0,0,0-43.78,17.13Z"/></g><g class="cls-18"><path class="cls-17" d="M186.57,68.93a15.85,15.85,0,0,1,15.84-15.85,15.51,15.51,0,0,1,3.82.52,22.57,22.57,0,0,1,39.2,15.33Z"/></g><g class="cls-18"><path class="cls-17" d="M414.63,183a13.13,13.13,0,0,1,16.46-12.84A18.9,18.9,0,0,1,463.92,183Z"/></g><g class="cls-18"><path class="cls-17" d="M333.33,157.91A18.6,18.6,0,0,0,310,139.74a26.75,26.75,0,0,0-46.45,18.17Z"/></g><path class="cls-19" d="M192,304c-17.21,16.79-35.33-5.33-56,0-15.61,4-44,85-64,112l-8.3,8.86a255.8,255.8,0,0,0,372.92,12.5C424,418,408.91,313.06,404.91,299.06S365.33,284.67,360,288c-11.87,7.42-30,88-56,88-15.33,0-29.75-89.5-40-96C248,269.84,205.58,290.75,192,304Z"/><path class="cls-20" d="M348.67,375.33c-6.9-19.1-5-55.72,5.44-79.33C342.4,318.2,326,376,304,376c-4,0-7.89-5.76-11.6-14.45,6.52,18.18,10.41,18.16,35.6,36.74,36.67,27,42,57.38,70.84,70.15q4.88-3.29,9.58-6.79C392,448,355.93,395.45,348.67,375.33Z"/><path class="cls-20" d="M267.42,511.71C234.66,482,226.54,410.54,216,400c-16.67-16.67-43.33,1.33-56-24-7.75-15.5-9.33-50.67-40-48l-3,.75C102.44,355.93,85.36,398,72,416l-8.3,8.86A255.26,255.26,0,0,0,256,512C259.83,512,263.63,511.88,267.42,511.71Z"/><path class="cls-19" d="M202.49,506.34V479.12a3.37,3.37,0,0,0-6.73,0v25.66C198,505.32,200.23,505.86,202.49,506.34Z"/><path class="cls-19" d="M101,425.7a2.91,2.91,0,0,1-2.91-2.91V391.5a2.91,2.91,0,0,1,5.82,0v31.29A2.91,2.91,0,0,1,101,425.7Z"/><path class="cls-21" d="M119.34,388.84a18.31,18.31,0,1,1-36.62,0c0-10.11,8.2-41.2,18.31-41.2S119.34,378.73,119.34,388.84Z"/><path class="cls-8" d="M101,347.64c-2.54,0-5,2-7.15,5.06h0c9.25,0,16.75,28.45,16.75,37.7a16.75,16.75,0,0,1-13.25,16.38,18.3,18.3,0,0,0,22-17.94C119.34,378.73,111.14,347.64,101,347.64Z"/><path class="cls-19" d="M171.5,441.57a2.65,2.65,0,0,1-2.65-2.64V410.51a2.65,2.65,0,0,1,5.29,0v28.42A2.64,2.64,0,0,1,171.5,441.57Z"/><path class="cls-21" d="M188.13,408.09a16.64,16.64,0,0,1-33.27,0c0-9.19,7.45-37.42,16.63-37.42S188.13,398.9,188.13,408.09Z"/><path class="cls-8" d="M171.49,370.67c-2.3,0-4.5,1.78-6.49,4.59h0c8.4,0,15.22,25.84,15.22,34.25a15.23,15.23,0,0,1-12,14.88,17.2,17.2,0,0,0,3.31.33,16.64,16.64,0,0,0,16.64-16.63C188.13,398.9,180.68,370.67,171.49,370.67Z"/><path class="cls-21" d="M220.31,476a21.19,21.19,0,0,1-42.37,0c0-11.7,9.48-47.67,21.18-47.67S220.31,464.34,220.31,476Z"/><path class="cls-8" d="M199.12,428.37c-2.93,0-5.73,2.27-8.27,5.85h0c10.71,0,19.39,32.92,19.39,43.63a19.4,19.4,0,0,1-15.33,18.95,20.87,20.87,0,0,0,4.21.42A21.19,21.19,0,0,0,220.31,476C220.31,464.34,210.82,428.37,199.12,428.37Z"/><path class="cls-19" d="M119.15,445.55a3.11,3.11,0,0,1-3.11-3.11V409a3.11,3.11,0,0,1,6.22,0v33.49A3.11,3.11,0,0,1,119.15,445.55Z"/><path class="cls-21" d="M138.75,406.1a19.6,19.6,0,0,1-39.2,0c0-10.83,8.78-44.1,19.6-44.1S138.75,395.27,138.75,406.1Z"/><path class="cls-8" d="M119.15,362c-2.72,0-5.3,2.1-7.65,5.41h0c9.9,0,17.93,30.45,17.93,40.36a17.93,17.93,0,0,1-14.18,17.53,19.32,19.32,0,0,0,3.9.39,19.59,19.59,0,0,0,19.6-19.59C138.75,395.27,130,362,119.15,362Z"/><path class="cls-19" d="M330.85,406.94a2.75,2.75,0,0,1-2.75-2.75V374.58a2.75,2.75,0,0,1,5.5,0v29.61A2.75,2.75,0,0,1,330.85,406.94Z"/><path class="cls-21" d="M348.18,372.05a17.33,17.33,0,1,1-34.66,0c0-9.57,7.76-39,17.33-39S348.18,362.48,348.18,372.05Z"/><path class="cls-8" d="M330.85,333.06c-2.4,0-4.69,1.86-6.77,4.79h0c8.76,0,15.86,26.93,15.86,35.69A15.86,15.86,0,0,1,327.4,389a17.78,17.78,0,0,0,3.45.35,17.33,17.33,0,0,0,17.33-17.33C348.18,362.48,340.42,333.06,330.85,333.06Z"/><path class="cls-19" d="M352.6,426.16a2.41,2.41,0,0,1-2.42-2.41v-26a2.42,2.42,0,1,1,4.84,0v26A2.41,2.41,0,0,1,352.6,426.16Z"/><path class="cls-21" d="M367.83,395.5a15.23,15.23,0,0,1-30.46,0c0-8.41,6.82-34.27,15.23-34.27S367.83,387.09,367.83,395.5Z"/><path class="cls-8" d="M352.6,361.22c-2.11,0-4.12,1.64-6,4.21h0c7.7,0,13.94,23.67,13.94,31.37a14,14,0,0,1-11,13.63,15.88,15.88,0,0,0,3,.3,15.23,15.23,0,0,0,15.23-15.23C367.83,387.08,361,361.22,352.6,361.22Z"/><path class="cls-22" d="M283.75,361.22c-2.64-12.33,1.16-12.18,5.37-8.62-9.59-27-18.28-68.26-25.12-72.6-11.24-7.13-35.42,1-53.57,11.12-2.25,1.68-4.52,3.41-6.76,5.21C183.33,312.66,191.82,318.58,206,317c15.75-1.75,27.49,30.64,31.75,30.64,9.25,0-1.21-23,10-19.78,4.86,1.39,35.16,77.08,41.37,75.64C294.5,402.25,286.75,375.25,283.75,361.22Z"/><path class="cls-22" d="M328,398.29c-3.86-2.85-7.17-5.22-10.11-7.33h0c21,20.17,44.9,75.62,61,89.53,6.8-3.73,13.36-7.83,19.78-12.15C370,455.51,364.58,425.27,328,398.29Z"/><path class="cls-22" d="M404.91,299.06c-2.33-8.13-15.28-11.65-26.79-12.54,6.09.79,1.42,5.13,8.38,10.29s11.77,7.19,12.14,18.69c.32,10.35,2.8,99.33,21.51,136.85,5.7-4.77,11.21-9.75,16.47-15C424,418,408.91,313.06,404.91,299.06Z"/><path class="cls-22" d="M307.67,435.73c-10-10.82-8.34,6.3-3.67,16.62,3.18,7,13.75,31.18,25.65,48.84a251.08,251.08,0,0,0,28-10.23C339.06,474.48,319.67,448.67,307.67,435.73Z"/><path class="cls-16" d="M165.82,235.36a4.38,4.38,0,0,0-4.38,4.38v9.15h8.75v-9.15A4.38,4.38,0,0,0,165.82,235.36Z"/><path class="cls-16" d="M165.82,257.11a4.38,4.38,0,0,0-4.38,4.38v9.15h8.75v-9.15A4.38,4.38,0,0,0,165.82,257.11Z"/><path class="cls-16" d="M177.24,235.36a4.38,4.38,0,0,0-4.38,4.38v9.15h8.75v-9.15A4.38,4.38,0,0,0,177.24,235.36Z"/><path class="cls-16" d="M177.24,257.11a4.38,4.38,0,0,0-4.38,4.38v9.15h8.75v-9.15A4.38,4.38,0,0,0,177.24,257.11Z"/><path class="cls-16" d="M165.82,278.86a4.38,4.38,0,0,0-4.38,4.38v9.15h8.75v-9.15A4.38,4.38,0,0,0,165.82,278.86Z"/><path class="cls-16" d="M177.24,278.86a4.38,4.38,0,0,0-4.38,4.38v9.15h8.75v-9.15A4.38,4.38,0,0,0,177.24,278.86Z"/></g><g id="Layer_2-2" data-name="Layer 2"><circle class="cls-23" cx="256.28" cy="255.72" r="255.72"/></g></g></g></svg>